<svg width="100" height="100" viewBox="0 0 100 100" fill="none" xmlns="http://www.w3.org/2000/svg">
    <g id="slime">
        <path id="tail" d="M97.5 41C97.5 49.7694 95.5603 57.6838 92.4491 63.388C89.3277 69.1111 85.0977 72.5 80.5469 72.5C75.9961 72.5 71.7661 69.1111 68.6446 63.388C65.5335 57.6838 63.5938 49.7694 63.5938 41C63.5938 32.2306 65.5335 24.3162 68.6446 18.612C71.7661 12.8889 75.9961 9.5 80.5469 9.5C85.0977 9.5 89.3277 12.8889 92.4491 18.612C95.5603 24.3162 97.5 32.2306 97.5 41Z" fill="url(#paint0_linear_10_55)" stroke="black"/>
        <g id="right-ear">
            <path d="M29.5614 21.5443C27.5749 16.0354 24.3484 11.5584 20.7125 8.7817C17.082 6.00906 12.9805 4.89269 9.30844 6.26933C5.63641 7.64597 3.22102 11.2055 2.21669 15.7158C1.2109 20.2326 1.59714 25.7744 3.58366 31.2833C5.57017 36.7922 8.7967 41.2692 12.4325 44.0459C16.0631 46.8185 20.1646 47.9349 23.8366 46.5583C27.5087 45.1816 29.9241 41.6221 30.9284 37.1118C31.9342 32.595 31.548 27.0532 29.5614 21.5443Z" fill="#AA4400" stroke="black"/>
            <ellipse rx="16.6547" ry="9.63717" transform="matrix(-0.339219 -0.940707 0.93636 -0.35104 16.6734 26.0502)" fill="#DDAA00"/>
        </g>
        <g id="left-ear">
            <path d="M84.5615 31.2833C82.575 36.7922 79.3485 41.2692 75.7127 44.0459C72.0821 46.8186 67.9806 47.935 64.3086 46.5583C60.6365 45.1817 58.2211 41.6222 57.2168 37.1119C56.211 32.5951 56.5972 27.0533 58.5837 21.5444C60.5702 16.0355 63.7967 11.5585 67.4326 8.78177C71.0631 6.00911 75.1646 4.89273 78.8367 6.26936C82.5087 7.64599 84.9241 11.2055 85.9284 15.7158C86.9343 20.2326 86.548 25.7744 84.5615 31.2833Z" fill="#AA4400" stroke="black"/>
            <ellipse rx="16.6547" ry="9.63717" transform="matrix(-0.339231 0.940703 -0.944901 -0.327356 71.6734 26.0502)" fill="#DDAA00"/>
        </g>
        <g id="body">
            <path d="M85 77C85 79.0668 83.9512 81.1049 81.9129 83.0265C79.8758 84.9469 76.8986 86.7015 73.1756 88.1861C65.7335 91.1536 55.4185 93 44 93C32.5815 93 22.2665 91.1536 14.8244 88.1861C11.1014 86.7015 8.12415 84.9469 6.08706 83.0265C4.04877 81.1049 3 79.0668 3 77C3 74.9332 4.04877 72.8951 6.08706 70.9735C8.12415 69.0531 11.1014 67.2985 14.8244 65.8139C22.2665 62.8464 32.5815 61 44 61C55.4185 61 65.7335 62.8464 73.1756 65.8139C76.8986 67.2985 79.8758 69.0531 81.9129 70.9735C83.9512 72.8951 85 74.9332 85 77Z" fill="#DDAA00" stroke="black"/>
            <path d="M82.7856 52C82.7856 74.0914 64.925 92 42.8928 92C20.8606 92 3 74.0914 3 52C3 29.9086 20.8606 12 42.8928 12C64.925 12 82.7856 29.9086 82.7856 52Z" fill="#DDAA00"/>
            <path d="M84.5 52.2754C83.9859 57.7917 83.307 61.9065 82.4743 64.8912C81.6365 67.8943 80.661 69.6847 79.6056 70.6265C78.5937 71.5295 77.461 71.6928 76.122 71.299C74.7458 70.8944 73.1848 69.9064 71.4244 68.528C69.9313 67.3589 68.3328 65.9404 66.6178 64.4185C66.3182 64.1526 66.015 63.8836 65.7082 63.6122C63.652 61.7931 61.4429 59.8761 59.0944 58.1309C54.4053 54.6463 49.0985 51.7985 43.2423 51.7985C37.3907 51.7985 32.1181 54.5475 27.4753 57.9149C25.1505 59.6011 22.9695 61.4531 20.9432 63.2105C20.6128 63.497 20.2868 63.7807 19.9652 64.0607C18.3072 65.5039 16.7633 66.8478 15.321 67.9588C13.5928 69.2902 12.0636 70.2439 10.7167 70.6344C9.40572 71.0146 8.29922 70.8562 7.31128 69.9867C6.28092 69.0798 5.32637 67.3542 4.50298 64.4551C3.68472 61.5741 3.01397 57.6015 2.50001 52.2745C2.51327 30.308 20.7462 12 43.2423 12C65.7467 12 84.4868 30.3164 84.5 52.2754Z" fill="#AA4400" stroke="black"/>
        </g>
        <g id="crest">
            <path d="M30.5469 34.3456L43.2781 29.5345L56.0093 34.3456V43.6544L43.2781 48.4655L30.5469 43.6544V34.3456Z" fill="#882200" stroke="black"/>
            <path d="M44.2514 18.3456L56.9826 13.5345L69.7138 18.3456V27.6544L56.9826 32.4655L44.2514 27.6544V18.3456Z" fill="#882200" stroke="black"/>
            <path d="M16.5469 18.3456L29.2781 13.5345L42.0093 18.3456V27.6544L29.2781 32.4655L16.5469 27.6544V18.3456Z" fill="#882200" stroke="black"/>
        </g>
        <g id="left-eye-brow">
            <path id="left-brow" d="M77.8946 39.1213L62.6165 47.1213" stroke="black" stroke-width="2" stroke-linecap="round"/>
            <path id="left-eye" d="M63 48C63 50.7614 65.8299 52 69.205 52C72.5802 52 75.3163 49.7614 75.3163 47C75.3163 44.2386 72.5 43 72.5 43C63 48 72.5 43 63 48Z" fill="black"/>
        </g>
        <g id="right-eye-brow">
            <path id="right-brow" d="M8.61652 39.1213L23.8946 47.1213" stroke="black" stroke-width="2" stroke-linecap="round"/>
            <path id="right-eye" d="M23.5111 48C23.5111 50.7614 20.6812 52 17.3061 52C13.9309 52 11.1948 49.7614 11.1948 47C11.1948 44.2386 14.0111 43 14.0111 43C23.5111 48 14.0111 43 23.5111 48Z" fill="black"/>
        </g>
        <path id="mouth" d="M33.5562 57L33.73 57.3739C37.772 66.0666 50.2095 65.8364 53.927 57" stroke="black" stroke-width="2" stroke-linecap="round"/>
    </g>>
    <defs>
        <linearGradient id="paint0_linear_10_55" x1="80.5469" y1="9" x2="80.5469" y2="73" gradientUnits="userSpaceOnUse">
            <stop offset="0" stop-color="#AA4400"/>
            <stop offset="0.05" stop-color="#AA4400"/>
            <stop offset="0.05" stop-color="#882200"/>
            <stop offset="0.15" stop-color="#882200"/>
            <stop offset="0.15" stop-color="#AA4400"/>
            <stop offset="0.2" stop-color="#AA4400"/>
            <stop offset="0.2" stop-color="#DDAA00"/>
            <stop offset="0.3" stop-color="#DDAA00"/>
            <stop offset="0.3" stop-color="#AA4400"/>
            <stop offset="0.35" stop-color="#AA4400"/>
            <stop offset="0.35" stop-color="#882200"/>
            <stop offset="0.45" stop-color="#882200"/>
            <stop offset="0.45" stop-color="#AA4400"/>
            <stop offset="0.5" stop-color="#AA4400"/>
            <stop offset="0.5" stop-color="#DDAA00"/>
            <stop offset="0.6" stop-color="#DDAA00"/>
            <stop offset="0.6" stop-color="#AA4400"/>
            <stop offset="0.65" stop-color="#AA4400"/>
            <stop offset="0.65" stop-color="#882200"/>
            <stop offset="0.75" stop-color="#882200"/>
            <stop offset="0.75" stop-color="#AA4400"/>
            <stop offset="0.8" stop-color="#AA4400"/>
            <stop offset="0.8" stop-color="#DDAA00"/>
            <stop offset="1" stop-color="#DDAA00"/>
        </linearGradient>
    </defs>
    <style>
        @keyframes close-eye {
        5% {transform: scaleY(0.1)}
        10% {transform: scaleY(1)}
        }

        @keyframes close-right-brow {
        5% {transform: rotate(-27deg) translateY(2px)}
        10% {transform: rotate(0deg) translate(0)}
        }

        @keyframes close-left-brow {
        5% {transform: rotate(27deg) translateY(2px)}
        10% {transform: rotate(0deg) translate(0)}
        }

        #left-eye, #right-eye {
        transform-origin: center;
        animation: close-eye;
        }

        #left-brow {
        transform-origin: 62px 47px;
        animation: close-left-brow;
        }

        #right-brow {
        transform-origin: 24px 47px;
        animation: close-right-brow;
        }

        #right-brow, #left-brow, #left-eye, #right-eye {
        animation-duration: 10s;
        animation-iteration-count: infinite;
        }

        @keyframes wag {
        0% {transform: rotate(-5deg)}
        50% {transform: rotate(5deg)}
        100% {transform: rotate(-5deg)}
        }

        #tail {
        transform-origin: 75px 60px;
        animation: wag;
        animation-duration: 5s;
        animation-iteration-count: infinite;
        }

        @keyframes ear-twitch {
        0.8% {transform: rotate(0deg)}
        0.9% {transform: rotate(20deg)}
        1% {transform: rotate(0deg)}
        }

        #left-ear {
        transform-origin: center;
        animation: ear-twitch;
        animation-duration: 90s;
        animation-iteration-count: infinite;
        }

        @keyframes bounce {
        0% {transform: scaleY(1)}
        50% {transform: scaleY(0.99)}
        100% {transform: scaleY(1)}
        }

        #slime {
        transform-origin: center;
        animation: bounce;
        animation-duration: 3s;
        animation-iteration-count: infinite;
        }
    </style>
</svg>