<svg width="101" height="100" viewBox="0 0 101 100" fill="none" xmlns="http://www.w3.org/2000/svg">
    <path d="M97.5 41C97.5 49.7694 95.5603 57.6838 92.4491 63.388C89.3277 69.1111 85.0977 72.5 80.5469 72.5C75.9961 72.5 71.7661 69.1111 68.6446 63.388C65.5335 57.6838 63.5938 49.7694 63.5938 41C63.5938 32.2306 65.5335 24.3162 68.6446 18.612C71.7661 12.8889 75.9961 9.5 80.5469 9.5C85.0977 9.5 89.3277 12.8889 92.4491 18.612C95.5603 24.3162 97.5 32.2306 97.5 41Z" fill="url(#paint0_linear_11_133)" stroke="black"/>
    <path d="M85 77C85 79.0668 83.9512 81.1049 81.9129 83.0265C79.8758 84.9469 76.8986 86.7015 73.1756 88.1861C65.7335 91.1536 55.4185 93 44 93C32.5815 93 22.2665 91.1536 14.8244 88.1861C11.1014 86.7015 8.12415 84.9469 6.08706 83.0265C4.04877 81.1049 3 79.0668 3 77C3 74.9332 4.04877 72.8951 6.08706 70.9735C8.12415 69.0531 11.1014 67.2985 14.8244 65.8139C22.2665 62.8464 32.5815 61 44 61C55.4185 61 65.7335 62.8464 73.1756 65.8139C76.8986 67.2985 79.8758 69.0531 81.9129 70.9735C83.9512 72.8951 85 74.9332 85 77Z" fill="#DDAA00" stroke="black"/>
    <path d="M82.7856 52C82.7856 74.0914 64.925 92 42.8928 92C20.8606 92 3 74.0914 3 52C3 29.9086 20.8606 12 42.8928 12C64.925 12 82.7856 29.9086 82.7856 52Z" fill="#DDAA00"/>
    <path d="M84.5 52.2754C83.9859 57.7917 83.307 61.9065 82.4743 64.8912C81.6365 67.8943 80.661 69.6847 79.6056 70.6265C78.5937 71.5295 77.461 71.6928 76.122 71.299C74.7458 70.8944 73.1848 69.9064 71.4244 68.528C69.9313 67.3589 68.3328 65.9404 66.6178 64.4185C66.3182 64.1526 66.015 63.8836 65.7082 63.6122C63.652 61.7931 61.4429 59.8761 59.0944 58.1309C54.4053 54.6463 49.0985 51.7985 43.2423 51.7985C37.3907 51.7985 32.1181 54.5475 27.4753 57.9149C25.1505 59.6011 22.9695 61.4531 20.9432 63.2105C20.6128 63.497 20.2868 63.7807 19.9652 64.0607C18.3072 65.5039 16.7633 66.8478 15.321 67.9588C13.5928 69.2902 12.0636 70.2439 10.7167 70.6344C9.40573 71.0146 8.29923 70.8562 7.31129 69.9867C6.28093 69.0798 5.32638 67.3542 4.50299 64.4551C3.68473 61.5741 3.01398 57.6015 2.50002 52.2745C2.51328 30.308 20.7462 12 43.2423 12C65.7467 12 84.4868 30.3164 84.5 52.2754Z" fill="#AA4400" stroke="black"/>
    <path d="M30.5469 34.3456L43.2781 29.5345L56.0093 34.3456V43.6544L43.2781 48.4655L30.5469 43.6544V34.3456Z" fill="#882200" stroke="black"/>
    <path d="M44.2514 18.3456L56.9826 13.5345L69.7138 18.3456V27.6544L56.9826 32.4655L44.2514 27.6544V18.3456Z" fill="#882200" stroke="black"/>
    <path d="M16.5469 18.3456L29.2781 13.5345L42.0093 18.3456V27.6544L29.2781 32.4655L16.5469 27.6544V18.3456Z" fill="#882200" stroke="black"/>
    <path d="M77.8946 39.1213L62.6165 47.1213" stroke="black" stroke-width="2" stroke-linecap="round"/>
    <path d="M63.0938 48C63.0938 50.7614 65.8299 52 69.205 52C72.5802 52 75.3163 49.7614 75.3163 47C75.3163 44.2386 73.2792 44 70.7329 43C64.6216 48 63.0938 45.2386 63.0938 48Z" fill="black"/>
    <path d="M8.57004 39.1213L23.8481 47.1213" stroke="black" stroke-width="2" stroke-linecap="round"/>
    <path d="M23.3708 48C23.3708 50.7614 20.6347 52 17.2596 52C13.8844 52 11.1483 49.7614 11.1483 47C11.1483 44.2386 13.1854 44 15.7317 43C21.843 48 23.3708 45.2386 23.3708 48Z" fill="black"/>
    <path d="M33.5562 57L33.73 57.3739C37.772 66.0666 50.2095 65.8364 53.927 57" stroke="black" stroke-width="2" stroke-linecap="round"/>
    <defs>
        <linearGradient id="paint0_linear_11_133" x1="80.5469" y1="9" x2="80.5469" y2="73" gradientUnits="userSpaceOnUse">
            <stop stop-color="#AA4400"/>
            <stop offset="0.05" stop-color="#882200"/>
            <stop offset="0.15" stop-color="#AA4400"/>
            <stop offset="0.2" stop-color="#DDAA00"/>
            <stop offset="0.3" stop-color="#AA4400"/>
            <stop offset="0.35" stop-color="#882200"/>
            <stop offset="0.45" stop-color="#AA4400"/>
            <stop offset="0.5" stop-color="#DDAA00"/>
            <stop offset="0.6" stop-color="#AA4400"/>
            <stop offset="0.65" stop-color="#882200"/>
            <stop offset="0.75" stop-color="#AA4400"/>
            <stop offset="0.8" stop-color="#DDAA00"/>
            <stop offset="1" stop-color="#DDAA00"/>
        </linearGradient>
    </defs>
</svg>
